<svg width="16" height="16" viewBox="0 0 16 16" fill="none" xmlns="http://www.w3.org/2000/svg">
<path fill-rule="evenodd" clip-rule="evenodd" d="M1 16H16V9H1V16Z" fill="#40E08A" fill-opacity="0.7"/>
<path fill-rule="evenodd" clip-rule="evenodd" d="M7 1L3 5H7V1Z" fill="#9AA7B0" fill-opacity="0.8"/>
<path fill-rule="evenodd" clip-rule="evenodd" d="M8 1V6H3V8H13V1H8Z" fill="#9AA7B0" fill-opacity="0.8"/>
<path d="M5.16382 14.8076C3.97754 14.8076 3.0006 13.9638 3.0006 12.3906C3.0006 10.8364 4.00926 9.92922 5.20188 9.92922C5.80454 9.92922 6.28666 10.2147 6.59751 10.5382L6.07732 11.1726C5.83626 10.9442 5.56982 10.7856 5.22091 10.7856C4.54213 10.7856 4.02195 11.3756 4.02195 12.3589C4.02195 13.3548 4.48504 13.9512 5.20823 13.9512C5.60154 13.9512 5.91238 13.7608 6.15345 13.4944L6.67998 14.1161C6.28666 14.5728 5.77916 14.8076 5.16382 14.8076Z" fill="#231F20" fill-opacity="0.7"/>
<path d="M8.59624 14.8076C7.97455 14.8076 7.33383 14.5728 6.87074 14.1288L7.44167 13.4437C7.77155 13.7482 8.21561 13.9512 8.61527 13.9512C9.0847 13.9512 9.32577 13.7545 9.32577 13.45C9.32577 13.1265 9.04664 13.0186 8.62795 12.841L8.01261 12.5809C7.53049 12.3842 7.0547 11.9973 7.0547 11.3122C7.0547 10.5382 7.74617 9.92922 8.70408 9.92922C9.25599 9.92922 9.80789 10.1512 10.2012 10.5446L9.70005 11.1663C9.39555 10.9252 9.09105 10.7856 8.70408 10.7856C8.31077 10.7856 8.0697 10.9569 8.0697 11.2487C8.0697 11.5596 8.39324 11.6801 8.79289 11.845L9.40189 12.0924C9.97917 12.3272 10.3408 12.7014 10.3408 13.3739C10.3408 14.1478 9.6937 14.8076 8.59624 14.8076Z" fill="#231F20" fill-opacity="0.7"/>
<path d="M10.8605 14.7188V14.1542C12.0595 13.0123 12.8715 12.2193 12.8715 11.5469C12.8715 11.0901 12.6304 10.8237 12.199 10.8237C11.8628 10.8237 11.59 11.0584 11.3553 11.3058L10.8098 10.7666C11.2538 10.2972 11.6789 10.0497 12.3259 10.0497C13.2204 10.0497 13.8294 10.6207 13.8294 11.4961C13.8294 12.2828 13.0935 13.1074 12.2879 13.9448C12.5289 13.9131 12.8398 13.8877 13.0618 13.8877H14.0451V14.7188H10.8605Z" fill="#231F20" fill-opacity="0.7"/>
</svg>
