<svg width="16" height="16" viewBox="0 0 16 16" fill="none" xmlns="http://www.w3.org/2000/svg">
<path fill-rule="evenodd" clip-rule="evenodd" d="M1 16H16V9H1V16Z" fill="#40E08A" fill-opacity="0.7"/>
<path fill-rule="evenodd" clip-rule="evenodd" d="M7 1L3 5H7V1Z" fill="#9AA7B0" fill-opacity="0.8"/>
<path fill-rule="evenodd" clip-rule="evenodd" d="M8 1V6H3V8H13V1H8Z" fill="#9AA7B0" fill-opacity="0.8"/>
<path d="M3.99949 14.8076C3.37781 14.8076 2.73709 14.5728 2.27399 14.1288L2.84493 13.4437C3.17481 13.7482 3.61887 13.9512 4.01853 13.9512C4.48796 13.9512 4.72903 13.7545 4.72903 13.45C4.72903 13.1265 4.4499 13.0186 4.03121 12.841L3.41587 12.5809C2.93374 12.3842 2.45796 11.9973 2.45796 11.3122C2.45796 10.5382 3.14943 9.92922 4.10734 9.92922C4.65924 9.92922 5.21115 10.1512 5.60446 10.5446L5.10331 11.1663C4.79881 10.9252 4.49431 10.7856 4.10734 10.7856C3.71403 10.7856 3.47296 10.9569 3.47296 11.2487C3.47296 11.5596 3.79649 11.6801 4.19615 11.845L4.80515 12.0924C5.38243 12.3272 5.74403 12.7014 5.74403 13.3739C5.74403 14.1478 5.09696 14.8076 3.99949 14.8076Z" fill="#231F20" fill-opacity="0.7"/>
<path d="M7.20031 14.7188V13.0186L5.78566 10.0117H6.83872L7.28278 11.1345C7.416 11.4898 7.54288 11.8133 7.68878 12.1812H7.71416C7.85372 11.8133 7.98694 11.4898 8.12016 11.1345L8.57056 10.0117H9.60459L8.18994 13.0186V14.7188H7.20031Z" fill="#231F20" fill-opacity="0.7"/>
<path d="M10.1241 14.7188V10.0117H11.2152L12.0018 12.1749C12.1033 12.454 12.1858 12.7649 12.281 13.0567H12.3127C12.4142 12.7649 12.4967 12.454 12.5855 12.1749L13.3531 10.0117H14.4505V14.7188H13.5434V12.86C13.5434 12.4096 13.6195 11.7372 13.6702 11.2931H13.6449L13.2579 12.4033L12.5601 14.3064H11.9955L11.2913 12.4033L10.9171 11.2931H10.8917C10.9424 11.7372 11.0186 12.4096 11.0186 12.86V14.7188H10.1241Z" fill="#231F20" fill-opacity="0.7"/>
</svg>
