<svg width="512" height="512" viewBox="0 0 512 512" fill="none" xmlns="http://www.w3.org/2000/svg">
<path d="M448 128C448 92.6538 419.347 64 384 64H128C92.6538 64 64 92.6538 64 128V384C64 419.347 92.6538 448 128 448H384C419.347 448 448 419.347 448 384V128Z" fill="#40E08A"/>
<path d="M121.75 380V195H186C224.75 195 255.5 208.5 255.5 251C255.5 292.25 224.75 310.25 186 310.25H158.75V380H121.75ZM158.75 281H182.5C206.5 281 219.5 270.75 219.5 251C219.5 231.25 206.5 224.5 182.5 224.5H158.75V281ZM222.25 380L179.25 300.75L205 277.5L263.5 380H222.25Z" fill="black"/>
<path d="M342.283 383.5C317.283 383.5 292.783 374 274.783 356.75L296.033 331.25C309.033 343.5 326.783 351.5 343.033 351.5C362.283 351.5 372.283 343.25 372.283 330.5C372.283 316.75 361.033 312.25 344.533 305.25L319.783 294.75C301.283 287.25 282.283 272 282.283 245.25C282.283 215 309.033 191.75 346.283 191.75C367.783 191.75 389.283 200.25 404.283 215.5L385.783 238.75C373.783 229 361.533 223.5 346.283 223.5C330.033 223.5 319.783 230.75 319.783 242.75C319.783 256 333.033 261 348.783 267.25L373.033 277.25C395.283 286.5 410.033 301 410.033 327.5C410.033 357.75 384.783 383.5 342.283 383.5Z" fill="black"/>
</svg>
