<svg width="16" height="16" viewBox="0 0 16 16" fill="none" xmlns="http://www.w3.org/2000/svg">
<path fill-rule="evenodd" clip-rule="evenodd" d="M16 8C16 12.4183 12.4183 16 8 16C3.58171 16 0 12.4183 0 8C0 3.58171 3.58171 0 8 0C12.4183 0 16 3.58171 16 8Z" fill="#40E08A" fill-opacity="0.6"/>
<path d="M6.18714 11.5029C4.71786 11.5029 3.53143 10.45 3.53143 8.50929C3.53143 6.59214 4.75714 5.47643 6.23429 5.47643C6.97286 5.47643 7.56214 5.82214 7.93929 6.215L7.32643 6.96143C7.02786 6.67071 6.69786 6.47429 6.25 6.47429C5.37786 6.47429 4.71786 7.22857 4.71786 8.47C4.71786 9.74286 5.30714 10.4971 6.23429 10.4971C6.72929 10.4971 7.12214 10.2614 7.42857 9.92357L8.04143 10.6543C7.56214 11.2121 6.94143 11.5029 6.18714 11.5029Z" fill="#231F20" fill-opacity="0.7"/>
<path d="M10.4309 11.5029C9.64521 11.5029 8.87521 11.2043 8.30949 10.6621L8.97735 9.86071C9.38592 10.2457 9.94378 10.4971 10.4545 10.4971C11.0595 10.4971 11.3738 10.2379 11.3738 9.83714C11.3738 9.405 11.0202 9.26357 10.5016 9.04357L9.72378 8.71357C9.14235 8.47786 8.54521 7.99857 8.54521 7.15786C8.54521 6.20714 9.38592 5.47643 10.5566 5.47643C11.2324 5.47643 11.9081 5.74357 12.3795 6.22286L11.7981 6.95357C11.4209 6.64714 11.0359 6.47429 10.5566 6.47429C10.0459 6.47429 9.72378 6.70214 9.72378 7.07929C9.72378 7.49571 10.1402 7.65286 10.6352 7.84929L11.3974 8.16357C12.0966 8.45429 12.5602 8.91 12.5602 9.74286C12.5602 10.6936 11.7666 11.5029 10.4309 11.5029Z" fill="#231F20" fill-opacity="0.7"/>
</svg>
