<svg width="16" height="16" viewBox="0 0 16 16" fill="none" xmlns="http://www.w3.org/2000/svg">
<path fill-rule="evenodd" clip-rule="evenodd" d="M16 8C16 12.4183 12.4183 16 8 16C3.58171 16 0 12.4183 0 8C0 3.58171 3.58171 0 8 0C12.4183 0 16 3.58171 16 8Z" fill="#40E08A" fill-opacity="0.6"/>
<path d="M3.37714 10.8757C2.175 10.8757 1.20429 10.0143 1.20429 8.42643C1.20429 6.85786 2.20714 5.945 3.41571 5.945C4.02 5.945 4.50214 6.22786 4.81071 6.54929L4.30929 7.16C4.065 6.92214 3.795 6.76143 3.42857 6.76143C2.715 6.76143 2.175 7.37857 2.175 8.39429C2.175 9.43571 2.65714 10.0529 3.41571 10.0529C3.82071 10.0529 4.14214 9.86 4.39286 9.58357L4.89429 10.1814C4.50214 10.6379 3.99429 10.8757 3.37714 10.8757Z" fill="#231F20" fill-opacity="0.7"/>
<path d="M5.66089 10.7857V6.02857H6.70875L7.51875 8.25929C7.62804 8.555 7.71161 8.86357 7.81446 9.17214H7.84018C7.94946 8.86357 8.03304 8.555 8.12946 8.25929L8.92018 6.02857H9.97446V10.7857H9.10661V8.79929C9.10661 8.34929 9.18375 7.68714 9.23518 7.23714H9.20304L8.81089 8.35571L8.07804 10.3614H7.53161L6.79875 8.35571L6.41304 7.23714H6.38732C6.43875 7.68714 6.50946 8.34929 6.50946 8.79929V10.7857H5.66089Z" fill="#231F20" fill-opacity="0.7"/>
<path d="M11.1415 10.7857V6.02857H12.4465C13.8994 6.02857 14.7929 6.78071 14.7929 8.38786C14.7929 9.98857 13.8994 10.7857 12.4979 10.7857H11.1415ZM12.0929 10.0207H12.3822C13.2758 10.0207 13.8222 9.545 13.8222 8.38786C13.8222 7.23071 13.2758 6.78714 12.3822 6.78714H12.0929V10.0207Z" fill="#231F20" fill-opacity="0.7"/>
</svg>
