<svg width="16" height="16" viewBox="0 0 16 16" fill="none" xmlns="http://www.w3.org/2000/svg">
<path fill-rule="evenodd" clip-rule="evenodd" d="M16 8C16 12.4183 12.4183 16 8 16C3.58171 16 0 12.4183 0 8C0 3.58171 3.58171 0 8 0C12.4183 0 16 3.58171 16 8Z" fill="#40E08A" fill-opacity="0.6"/>
<path d="M8 11.6964C7.10714 11.6964 6.23214 11.3571 5.58929 10.7411L6.34821 9.83036C6.8125 10.2679 7.44643 10.5536 8.02679 10.5536C8.71429 10.5536 9.07143 10.2589 9.07143 9.80357C9.07143 9.3125 8.66964 9.15179 8.08036 8.90179L7.19643 8.52679C6.53571 8.25893 5.85714 7.71429 5.85714 6.75893C5.85714 5.67857 6.8125 4.84821 8.14286 4.84821C8.91071 4.84821 9.67857 5.15179 10.2143 5.69643L9.55357 6.52679C9.125 6.17857 8.6875 5.98214 8.14286 5.98214C7.5625 5.98214 7.19643 6.24107 7.19643 6.66964C7.19643 7.14286 7.66964 7.32143 8.23214 7.54464L9.09822 7.90179C9.89286 8.23214 10.4196 8.75 10.4196 9.69643C10.4196 10.7768 9.51786 11.6964 8 11.6964Z" fill="#231F20" fill-opacity="0.7"/>
</svg>
