<svg width="16" height="16" viewBox="0 0 16 16" fill="none" xmlns="http://www.w3.org/2000/svg">
<path fill-rule="evenodd" clip-rule="evenodd" d="M16 8C16 12.4183 12.4183 16 8 16C3.58171 16 0 12.4183 0 8C0 3.58171 3.58171 0 8 0C12.4183 0 16 3.58171 16 8Z" fill="#40E08A" fill-opacity="0.6"/>
<path d="M9.37143 9.36429C8.07143 9.36429 7.47143 8.09286 6.57143 8.09286C6.12857 8.09286 5.72857 8.42143 5.38571 9.03571L4.28571 8.20714C5.01429 7.03571 5.82857 6.59286 6.6 6.59286C7.92857 6.59286 8.51429 7.86429 9.4 7.86429C9.85714 7.86429 10.2571 7.53571 10.6 6.92143L11.7 7.75C10.9571 8.92143 10.1571 9.36429 9.37143 9.36429Z" fill="#231F20" fill-opacity="0.7"/>
</svg>
