<svg width="16" height="16" viewBox="0 0 16 16" fill="none" xmlns="http://www.w3.org/2000/svg">
<g clip-path="url(#clip0_23_40)">
<path d="M8.00009 15.7408C12.2752 15.7408 15.7409 12.2751 15.7409 8C15.7409 3.72487 12.2752 0.259186 8.00009 0.259186C3.72496 0.259186 0.259277 3.72487 0.259277 8C0.259277 12.2751 3.72496 15.7408 8.00009 15.7408Z" fill="#6487FF"/>
<path d="M11.0411 13.5292C7.22403 13.5292 4.12968 10.4348 4.12968 6.61772C4.12968 3.77012 5.85221 1.32556 8.31181 0.267061C8.20828 0.262936 8.10465 0.259186 8.00009 0.259186C3.72493 0.259186 0.259277 3.72484 0.259277 8C0.259277 12.2751 3.72496 15.7408 8.00009 15.7408C10.4383 15.7408 12.612 14.6124 14.0308 12.8507C13.1261 13.2854 12.1121 13.5292 11.0411 13.5292Z" fill="#4B6EDC"/>
<path d="M6.61773 12.6998C7.53384 12.6998 8.27648 12.2047 8.27648 11.5939C8.27648 10.9832 7.53384 10.4881 6.61773 10.4881C5.70163 10.4881 4.95898 10.9832 4.95898 11.5939C4.95898 12.2047 5.70163 12.6998 6.61773 12.6998Z" fill="#4B6EDC"/>
<path d="M0.503174 6.06477H15.497C15.1053 4.54255 14.2608 3.20299 13.1175 2.19437H2.88274C1.73939 3.20299 0.894955 4.54259 0.503174 6.06477Z" fill="#4B6EDC"/>
<path d="M4.15233 6.06479C4.26861 4.59676 4.84621 3.26066 5.73671 2.19438H2.88274C1.73936 3.20301 0.894955 4.54257 0.503174 6.06479H4.15233Z" fill="#3C55C3"/>
<path d="M5.51548 10.7692C5.1748 10.9717 4.95898 11.2657 4.95898 11.594C4.95898 12.2047 5.70161 12.6998 6.61773 12.6998C6.93214 12.6998 7.22505 12.6404 7.47555 12.5392C6.71392 12.0795 6.04827 11.4773 5.51548 10.7692Z" fill="#3C55C3"/>
<path d="M13.6568 2.34316C12.1459 0.832125 10.1369 0 8 0C5.86313 0 3.85413 0.832125 2.34316 2.34316C0.832125 3.85413 0 5.86313 0 8C0 10.1369 0.832125 12.1459 2.34316 13.6568C3.85419 15.1678 5.86313 16 8 16C10.1369 16 12.1459 15.1679 13.6568 13.6568C15.1678 12.1458 16 10.1369 16 8C16 5.86313 15.1679 3.85413 13.6568 2.34316ZM13.2903 13.2903C11.8772 14.7034 9.99844 15.4817 8 15.4817C6.00156 15.4817 4.12278 14.7034 2.70966 13.2903C1.29659 11.8772 0.518344 9.99841 0.518344 8C0.518344 6.00159 1.29659 4.12278 2.70966 2.70966C4.12278 1.29659 6.00159 0.518344 8 0.518344C9.99841 0.518344 11.8772 1.29656 13.2903 2.70966C14.7034 4.12278 15.4817 6.00159 15.4817 8C15.4817 9.99841 14.7034 11.8772 13.2903 13.2903Z" fill="black"/>
<path d="M9.93514 11.3348H8.50199C8.3363 10.6975 7.56821 10.2289 6.61764 10.2289C5.54214 10.2289 4.69971 10.8285 4.69971 11.5939C4.69971 12.3593 5.54214 12.9589 6.61764 12.9589C7.56821 12.9589 8.33627 12.4904 8.50199 11.8531H9.93514C10.0783 11.8531 10.1943 11.7371 10.1943 11.5939C10.1943 11.4508 10.0783 11.3348 9.93514 11.3348ZM6.61764 12.4406C5.85902 12.4406 5.21808 12.0529 5.21808 11.5939C5.21808 11.135 5.85902 10.7473 6.61764 10.7473C7.37627 10.7473 8.01721 11.135 8.01721 11.5939C8.01721 12.0529 7.37627 12.4406 6.61764 12.4406Z" fill="black"/>
<path d="M5.21827 7.72353C5.21827 7.5804 5.10224 7.46434 4.95908 7.46434H2.19449C2.05137 7.46434 1.9353 7.58037 1.9353 7.72353C1.9353 7.86668 2.05133 7.98272 2.19449 7.98272H4.95908C5.10221 7.98272 5.21827 7.86668 5.21827 7.72353Z" fill="black"/>
<path d="M12.1468 3.59393H11.0409C10.8978 3.59393 10.7817 3.70996 10.7817 3.85312C10.7817 3.99625 10.8978 4.11231 11.0409 4.11231H12.1468C12.2899 4.11231 12.406 3.99628 12.406 3.85312C12.4059 3.71 12.2899 3.59393 12.1468 3.59393Z" fill="black"/>
<path d="M7.72354 7.98272H8.27645C8.41957 7.98272 8.53564 7.86668 8.53564 7.72353C8.53564 7.58037 8.41961 7.46434 8.27645 7.46434H7.72354C7.58042 7.46434 7.46436 7.58037 7.46436 7.72353C7.46436 7.86668 7.58042 7.98272 7.72354 7.98272Z" fill="black"/>
<path d="M11.5938 11.3348H11.0409C10.8978 11.3348 10.7817 11.4508 10.7817 11.594C10.7817 11.7371 10.8978 11.8532 11.0409 11.8532H11.5938C11.737 11.8532 11.853 11.7371 11.853 11.594C11.853 11.4508 11.737 11.3348 11.5938 11.3348Z" fill="black"/>
<path d="M3.85311 11.3348H3.3002C3.15708 11.3348 3.04102 11.4508 3.04102 11.594C3.04102 11.7371 3.15705 11.8532 3.3002 11.8532H3.85311C3.99623 11.8532 4.1123 11.7371 4.1123 11.594C4.1123 11.4508 3.99627 11.3348 3.85311 11.3348Z" fill="black"/>
</g>
<defs>
<clipPath id="clip0_23_40">
<rect width="16" height="16" fill="white"/>
</clipPath>
</defs>
</svg>
