<svg width="16" height="16" viewBox="0 0 16 16" fill="none" xmlns="http://www.w3.org/2000/svg">
<path d="M14 4C14 2.89543 13.1046 2 12 2H4C2.89543 2 2 2.89543 2 4V12C2 13.1046 2.89543 14 4 14H12C13.1046 14 14 13.1046 14 12V4Z" fill="#40E08A"/>
<path d="M3.80469 11.875V6.09375H5.8125C7.02344 6.09375 7.98438 6.51562 7.98438 7.84375C7.98438 9.13281 7.02344 9.69531 5.8125 9.69531H4.96094V11.875H3.80469ZM4.96094 8.78125H5.70313C6.45313 8.78125 6.85938 8.46094 6.85938 7.84375C6.85938 7.22656 6.45313 7.01562 5.70313 7.01562H4.96094V8.78125ZM6.94531 11.875L5.60156 9.39844L6.40625 8.67188L8.23438 11.875H6.94531Z" fill="black"/>
<path d="M10.6964 11.9844C9.9151 11.9844 9.14948 11.6875 8.58698 11.1484L9.25104 10.3516C9.65729 10.7344 10.212 10.9844 10.7198 10.9844C11.3214 10.9844 11.6339 10.7266 11.6339 10.3281C11.6339 9.89844 11.2823 9.75781 10.7667 9.53906L9.99323 9.21094C9.4151 8.97656 8.82135 8.5 8.82135 7.66406C8.82135 6.71875 9.65729 5.99219 10.8214 5.99219C11.4932 5.99219 12.1651 6.25781 12.6339 6.73437L12.0557 7.46094C11.6807 7.15625 11.2979 6.98437 10.8214 6.98437C10.3135 6.98437 9.99323 7.21094 9.99323 7.58594C9.99323 8 10.4073 8.15625 10.8995 8.35156L11.6573 8.66406C12.3526 8.95312 12.8135 9.40625 12.8135 10.2344C12.8135 11.1797 12.0245 11.9844 10.6964 11.9844Z" fill="black"/>
</svg>
